<?xml version="1.0" encoding="UTF-8"?>
<svg xmlns="http://www.w3.org/2000/svg" xmlns:xlink="http://www.w3.org/1999/xlink" width="375pt" height="374.999991pt" viewBox="0 0 375 374.999991" version="1.2">
<g id="surface1">
<path style=" stroke:none;fill-rule:nonzero;fill:rgb(0%,29.019165%,67.83905%);fill-opacity:1;" d="M 367.476562 269.027344 L 351.351562 269.027344 L 351.351562 114.949219 L 367.476562 114.949219 Z M 345.25 283.765625 C 345.25 285 344.238281 286 343.015625 286 L 337.9375 286 C 336.714844 286 335.703125 285 335.703125 283.765625 L 335.703125 276.464844 L 345.25 276.464844 Z M 324.660156 269.027344 L 324.660156 114.949219 L 343.914062 114.949219 L 343.914062 269.027344 Z M 317.21875 269.027344 L 297.96875 269.027344 L 297.96875 260.945312 L 307.664062 260.945312 C 309.722656 260.945312 311.382812 259.285156 311.382812 257.226562 L 311.382812 162.777344 C 311.382812 159.09375 308.371094 156.082031 304.6875 156.082031 L 297.96875 156.082031 L 297.96875 114.949219 L 317.21875 114.949219 Z M 290.527344 269.027344 L 271.285156 269.027344 L 271.285156 260.945312 L 290.527344 260.945312 Z M 263.847656 269.027344 L 244.59375 269.027344 L 244.59375 260.945312 L 263.847656 260.945312 Z M 237.152344 269.027344 L 217.914062 269.027344 L 217.914062 114.949219 L 237.152344 114.949219 L 237.152344 156.082031 L 230.46875 156.082031 C 226.785156 156.082031 223.773438 159.09375 223.773438 162.777344 L 223.773438 257.226562 C 223.773438 259.285156 225.433594 260.945312 227.492188 260.945312 L 237.152344 260.945312 Z M 210.472656 269.027344 L 191.21875 269.027344 L 191.21875 114.949219 L 210.472656 114.949219 Z M 183.78125 269.027344 L 164.527344 269.027344 L 164.527344 114.949219 L 183.78125 114.949219 Z M 157.085938 269.027344 L 137.847656 269.027344 L 137.847656 260.945312 L 147.507812 260.945312 C 149.566406 260.945312 151.226562 259.285156 151.226562 257.226562 L 151.226562 162.777344 C 151.226562 159.09375 148.214844 156.082031 144.53125 156.082031 L 137.847656 156.082031 L 137.847656 114.949219 L 157.085938 114.949219 Z M 130.40625 269.027344 L 111.152344 269.027344 L 111.152344 260.945312 L 130.40625 260.945312 Z M 103.714844 269.027344 L 84.472656 269.027344 L 84.472656 260.945312 L 103.714844 260.945312 Z M 77.03125 269.027344 L 57.78125 269.027344 L 57.78125 114.949219 L 77.03125 114.949219 L 77.03125 156.082031 L 70.3125 156.082031 C 66.628906 156.082031 63.617188 159.09375 63.617188 162.777344 L 63.617188 257.226562 C 63.617188 259.285156 65.277344 260.945312 67.335938 260.945312 L 77.03125 260.945312 Z M 50.339844 269.027344 L 31.097656 269.027344 L 31.097656 114.949219 L 50.339844 114.949219 Z M 39.25 283.765625 C 39.25 285 38.238281 286 37.015625 286 L 31.949219 286 C 30.714844 286 29.714844 285 29.714844 283.765625 L 29.714844 276.464844 L 39.25 276.464844 Z M 84.472656 114.949219 L 103.714844 114.949219 L 103.714844 156.082031 L 84.472656 156.082031 Z M 143.789062 163.523438 L 143.789062 253.503906 L 71.054688 253.503906 L 71.054688 163.523438 Z M 111.152344 114.949219 L 130.40625 114.949219 L 130.40625 156.082031 L 111.152344 156.082031 Z M 244.59375 114.949219 L 263.847656 114.949219 L 263.847656 156.082031 L 244.59375 156.082031 Z M 303.945312 163.523438 L 303.945312 253.503906 L 231.210938 253.503906 L 231.210938 163.523438 Z M 271.285156 114.949219 L 290.527344 114.949219 L 290.527344 156.082031 L 271.285156 156.082031 Z M 23.660156 269.027344 L 7.488281 269.027344 L 7.488281 114.949219 L 23.660156 114.949219 Z M 368.222656 107.507812 L 6.742188 107.507812 C 3.046875 107.507812 0.046875 110.507812 0.046875 114.207031 L 0.046875 269.769531 C 0.046875 273.457031 3.046875 276.464844 6.742188 276.464844 L 22.273438 276.464844 L 22.273438 283.765625 C 22.273438 289.105469 26.613281 293.441406 31.949219 293.441406 L 37.015625 293.441406 C 42.339844 293.441406 46.6875 289.105469 46.6875 283.765625 L 46.6875 276.464844 L 328.265625 276.464844 L 328.265625 283.765625 C 328.265625 289.105469 332.613281 293.441406 337.9375 293.441406 L 343.015625 293.441406 C 348.34375 293.441406 352.691406 289.105469 352.691406 283.765625 L 352.691406 276.464844 L 368.222656 276.464844 C 371.90625 276.464844 374.917969 273.457031 374.917969 269.769531 L 374.917969 114.207031 C 374.917969 110.507812 371.90625 107.507812 368.222656 107.507812 "/>
</g>
</svg>
