<?xml version="1.0" encoding="UTF-8"?>
<svg xmlns="http://www.w3.org/2000/svg" xmlns:xlink="http://www.w3.org/1999/xlink" width="375pt" height="374.999991pt" viewBox="0 0 375 374.999991" version="1.2">
<defs>
<clipPath id="clip1">
  <path d="M 0 140.625 L 375 140.625 L 375 234.375 L 0 234.375 Z M 0 140.625 "/>
</clipPath>
</defs>
<g id="surface1">
<g clip-path="url(#clip1)" clip-rule="nonzero">
<path style=" stroke:none;fill-rule:nonzero;fill:rgb(100%,34.118652%,34.118652%);fill-opacity:1;" d="M 17.5 140.625 L 357.5 140.625 C 358.074219 140.625 358.644531 140.652344 359.214844 140.710938 C 359.785156 140.765625 360.351562 140.847656 360.914062 140.960938 C 361.476562 141.074219 362.03125 141.210938 362.578125 141.378906 C 363.128906 141.542969 363.667969 141.738281 364.195312 141.957031 C 364.726562 142.175781 365.242188 142.421875 365.75 142.691406 C 366.253906 142.960938 366.746094 143.253906 367.222656 143.574219 C 367.699219 143.894531 368.160156 144.234375 368.601562 144.597656 C 369.046875 144.960938 369.46875 145.34375 369.875 145.75 C 370.28125 146.15625 370.664062 146.578125 371.027344 147.023438 C 371.390625 147.464844 371.730469 147.925781 372.050781 148.402344 C 372.367188 148.878906 372.664062 149.371094 372.933594 149.875 C 373.203125 150.382812 373.449219 150.898438 373.667969 151.429688 C 373.886719 151.957031 374.078125 152.496094 374.246094 153.046875 C 374.414062 153.59375 374.550781 154.148438 374.664062 154.710938 C 374.777344 155.273438 374.859375 155.839844 374.914062 156.410156 C 374.972656 156.980469 375 157.550781 375 158.125 L 375 216.875 C 375 217.449219 374.972656 218.019531 374.914062 218.589844 C 374.859375 219.160156 374.777344 219.726562 374.664062 220.289062 C 374.550781 220.851562 374.414062 221.40625 374.246094 221.953125 C 374.078125 222.503906 373.886719 223.042969 373.667969 223.570312 C 373.449219 224.101562 373.203125 224.617188 372.933594 225.125 C 372.664062 225.628906 372.367188 226.121094 372.050781 226.597656 C 371.730469 227.074219 371.390625 227.535156 371.027344 227.976562 C 370.664062 228.421875 370.28125 228.84375 369.875 229.25 C 369.46875 229.65625 369.042969 230.039062 368.601562 230.402344 C 368.160156 230.765625 367.699219 231.105469 367.222656 231.425781 C 366.746094 231.742188 366.253906 232.039062 365.75 232.308594 C 365.242188 232.578125 364.726562 232.824219 364.195312 233.042969 C 363.667969 233.261719 363.128906 233.453125 362.578125 233.621094 C 362.03125 233.789062 361.476562 233.925781 360.914062 234.039062 C 360.351562 234.152344 359.785156 234.234375 359.214844 234.289062 C 358.644531 234.347656 358.074219 234.375 357.5 234.375 L 17.5 234.375 C 16.925781 234.375 16.355469 234.347656 15.785156 234.289062 C 15.214844 234.234375 14.648438 234.152344 14.085938 234.039062 C 13.523438 233.925781 12.96875 233.789062 12.421875 233.621094 C 11.871094 233.453125 11.332031 233.261719 10.804688 233.042969 C 10.273438 232.824219 9.757812 232.578125 9.25 232.308594 C 8.746094 232.039062 8.253906 231.742188 7.777344 231.425781 C 7.300781 231.105469 6.839844 230.765625 6.398438 230.402344 C 5.953125 230.039062 5.53125 229.65625 5.125 229.25 C 4.71875 228.84375 4.335938 228.417969 3.972656 227.976562 C 3.609375 227.535156 3.269531 227.074219 2.949219 226.597656 C 2.628906 226.121094 2.335938 225.628906 2.066406 225.125 C 1.796875 224.617188 1.550781 224.101562 1.332031 223.570312 C 1.113281 223.042969 0.917969 222.503906 0.753906 221.953125 C 0.585938 221.40625 0.449219 220.851562 0.335938 220.289062 C 0.222656 219.726562 0.140625 219.160156 0.0859375 218.589844 C 0.0273438 218.019531 0 217.449219 0 216.875 L 0 158.125 C 0 157.550781 0.0273438 156.980469 0.0859375 156.410156 C 0.140625 155.839844 0.222656 155.273438 0.335938 154.710938 C 0.449219 154.148438 0.585938 153.59375 0.753906 153.046875 C 0.917969 152.496094 1.113281 151.957031 1.332031 151.429688 C 1.550781 150.898438 1.796875 150.382812 2.066406 149.875 C 2.335938 149.371094 2.628906 148.878906 2.949219 148.402344 C 3.269531 147.925781 3.609375 147.464844 3.972656 147.023438 C 4.335938 146.578125 4.71875 146.15625 5.125 145.75 C 5.53125 145.34375 5.953125 144.960938 6.398438 144.597656 C 6.839844 144.234375 7.300781 143.894531 7.777344 143.574219 C 8.253906 143.253906 8.746094 142.960938 9.25 142.691406 C 9.757812 142.421875 10.273438 142.175781 10.804688 141.957031 C 11.332031 141.738281 11.871094 141.542969 12.421875 141.378906 C 12.96875 141.210938 13.523438 141.074219 14.085938 140.960938 C 14.648438 140.847656 15.214844 140.765625 15.785156 140.710938 C 16.355469 140.652344 16.925781 140.625 17.5 140.625 Z M 17.5 140.625 "/>
</g>
</g>
</svg>
