<?xml version="1.0" encoding="UTF-8"?>
<svg xmlns="http://www.w3.org/2000/svg" xmlns:xlink="http://www.w3.org/1999/xlink" width="375pt" height="374.999991pt" viewBox="0 0 375 374.999991" version="1.2">
<g id="surface1">
<path style=" stroke:none;fill-rule:nonzero;fill:rgb(49.409485%,85.099792%,34.118652%);fill-opacity:1;" d="M 17.5 234.375 L 123.125 234.375 C 123.699219 234.375 124.269531 234.402344 124.839844 234.460938 C 125.410156 234.515625 125.976562 234.597656 126.539062 234.710938 C 127.101562 234.824219 127.65625 234.960938 128.203125 235.128906 C 128.753906 235.292969 129.292969 235.488281 129.820312 235.707031 C 130.351562 235.925781 130.867188 236.171875 131.375 236.441406 C 131.878906 236.710938 132.371094 237.003906 132.847656 237.324219 C 133.324219 237.644531 133.785156 237.984375 134.226562 238.347656 C 134.671875 238.710938 135.09375 239.09375 135.5 239.5 C 135.90625 239.90625 136.289062 240.328125 136.652344 240.773438 C 137.015625 241.214844 137.355469 241.675781 137.675781 242.152344 C 137.992188 242.628906 138.289062 243.121094 138.558594 243.625 C 138.828125 244.132812 139.074219 244.648438 139.292969 245.179688 C 139.511719 245.707031 139.703125 246.246094 139.871094 246.796875 C 140.039062 247.34375 140.175781 247.898438 140.289062 248.460938 C 140.402344 249.023438 140.484375 249.589844 140.539062 250.160156 C 140.597656 250.730469 140.625 251.300781 140.625 251.875 L 140.625 357.5 C 140.625 358.074219 140.652344 358.644531 140.710938 359.214844 C 140.765625 359.785156 140.847656 360.351562 140.960938 360.914062 C 141.074219 361.476562 141.210938 362.03125 141.378906 362.578125 C 141.542969 363.128906 141.738281 363.667969 141.957031 364.195312 C 142.175781 364.726562 142.421875 365.242188 142.691406 365.75 C 142.960938 366.253906 143.253906 366.746094 143.574219 367.222656 C 143.894531 367.699219 144.234375 368.160156 144.597656 368.601562 C 144.960938 369.046875 145.34375 369.46875 145.75 369.875 C 146.15625 370.28125 146.578125 370.664062 147.023438 371.027344 C 147.464844 371.390625 147.925781 371.730469 148.402344 372.050781 C 148.878906 372.371094 149.371094 372.664062 149.875 372.933594 C 150.382812 373.203125 150.898438 373.449219 151.429688 373.667969 C 151.957031 373.886719 152.496094 374.078125 153.046875 374.246094 C 153.59375 374.414062 154.148438 374.550781 154.710938 374.664062 C 155.273438 374.777344 155.839844 374.859375 156.410156 374.914062 C 156.980469 374.972656 157.550781 375 158.125 375 L 216.875 375 C 217.449219 375 218.019531 374.972656 218.589844 374.914062 C 219.160156 374.859375 219.726562 374.777344 220.289062 374.664062 C 220.851562 374.550781 221.40625 374.414062 221.953125 374.246094 C 222.503906 374.082031 223.042969 373.886719 223.570312 373.667969 C 224.101562 373.449219 224.617188 373.203125 225.125 372.933594 C 225.628906 372.664062 226.121094 372.371094 226.597656 372.050781 C 227.074219 371.730469 227.535156 371.390625 227.976562 371.027344 C 228.421875 370.664062 228.84375 370.28125 229.25 369.875 C 229.65625 369.46875 230.039062 369.046875 230.402344 368.601562 C 230.765625 368.160156 231.105469 367.699219 231.425781 367.222656 C 231.742188 366.746094 232.039062 366.253906 232.308594 365.75 C 232.578125 365.242188 232.824219 364.726562 233.042969 364.195312 C 233.261719 363.667969 233.453125 363.128906 233.621094 362.578125 C 233.789062 362.03125 233.925781 361.476562 234.039062 360.914062 C 234.152344 360.351562 234.234375 359.785156 234.289062 359.214844 C 234.347656 358.644531 234.375 358.074219 234.375 357.5 L 234.375 251.875 C 234.375 251.300781 234.402344 250.730469 234.460938 250.160156 C 234.515625 249.589844 234.597656 249.023438 234.710938 248.460938 C 234.824219 247.898438 234.960938 247.34375 235.128906 246.796875 C 235.296875 246.246094 235.488281 245.707031 235.707031 245.179688 C 235.925781 244.648438 236.171875 244.132812 236.441406 243.625 C 236.710938 243.121094 237.007812 242.628906 237.324219 242.152344 C 237.644531 241.675781 237.984375 241.214844 238.347656 240.773438 C 238.710938 240.328125 239.09375 239.90625 239.5 239.5 C 239.90625 239.09375 240.332031 238.710938 240.773438 238.347656 C 241.214844 237.984375 241.675781 237.644531 242.152344 237.324219 C 242.628906 237.007812 243.121094 236.710938 243.625 236.441406 C 244.132812 236.171875 244.648438 235.925781 245.179688 235.707031 C 245.707031 235.488281 246.246094 235.296875 246.796875 235.128906 C 247.34375 234.960938 247.898438 234.824219 248.460938 234.710938 C 249.023438 234.597656 249.589844 234.515625 250.160156 234.460938 C 250.730469 234.402344 251.300781 234.375 251.875 234.375 L 357.5 234.375 C 358.074219 234.375 358.644531 234.347656 359.214844 234.289062 C 359.785156 234.234375 360.351562 234.152344 360.914062 234.039062 C 361.476562 233.925781 362.03125 233.789062 362.578125 233.621094 C 363.128906 233.453125 363.667969 233.261719 364.195312 233.042969 C 364.726562 232.824219 365.242188 232.578125 365.75 232.308594 C 366.253906 232.039062 366.746094 231.742188 367.222656 231.425781 C 367.699219 231.105469 368.160156 230.765625 368.601562 230.402344 C 369.046875 230.039062 369.46875 229.65625 369.875 229.25 C 370.28125 228.84375 370.664062 228.417969 371.027344 227.976562 C 371.390625 227.535156 371.730469 227.074219 372.050781 226.597656 C 372.371094 226.121094 372.664062 225.628906 372.933594 225.125 C 373.203125 224.617188 373.449219 224.101562 373.667969 223.570312 C 373.886719 223.042969 374.078125 222.503906 374.246094 221.953125 C 374.414062 221.40625 374.550781 220.851562 374.664062 220.289062 C 374.777344 219.726562 374.859375 219.160156 374.914062 218.589844 C 374.972656 218.019531 375 217.449219 375 216.875 L 375 158.125 C 375 157.550781 374.972656 156.980469 374.914062 156.410156 C 374.859375 155.839844 374.777344 155.273438 374.664062 154.710938 C 374.550781 154.148438 374.414062 153.59375 374.246094 153.046875 C 374.082031 152.496094 373.886719 151.957031 373.667969 151.429688 C 373.449219 150.898438 373.203125 150.382812 372.933594 149.875 C 372.664062 149.371094 372.371094 148.878906 372.050781 148.402344 C 371.730469 147.925781 371.390625 147.464844 371.027344 147.023438 C 370.664062 146.578125 370.28125 146.15625 369.875 145.75 C 369.46875 145.34375 369.046875 144.960938 368.601562 144.597656 C 368.160156 144.234375 367.699219 143.894531 367.222656 143.574219 C 366.746094 143.253906 366.253906 142.960938 365.75 142.691406 C 365.242188 142.421875 364.726562 142.175781 364.195312 141.957031 C 363.667969 141.738281 363.128906 141.542969 362.578125 141.378906 C 362.03125 141.210938 361.476562 141.074219 360.914062 140.960938 C 360.351562 140.847656 359.785156 140.765625 359.214844 140.710938 C 358.644531 140.652344 358.074219 140.625 357.5 140.625 L 251.875 140.625 C 251.300781 140.625 250.730469 140.597656 250.160156 140.539062 C 249.589844 140.484375 249.023438 140.402344 248.460938 140.289062 C 247.898438 140.175781 247.34375 140.039062 246.796875 139.871094 C 246.246094 139.703125 245.707031 139.511719 245.179688 139.292969 C 244.648438 139.074219 244.132812 138.828125 243.625 138.558594 C 243.121094 138.289062 242.628906 137.992188 242.152344 137.675781 C 241.675781 137.355469 241.214844 137.015625 240.773438 136.652344 C 240.332031 136.289062 239.90625 135.90625 239.5 135.5 C 239.09375 135.09375 238.710938 134.671875 238.347656 134.226562 C 237.984375 133.785156 237.644531 133.324219 237.324219 132.847656 C 237.007812 132.371094 236.710938 131.878906 236.441406 131.375 C 236.171875 130.867188 235.925781 130.351562 235.707031 129.820312 C 235.488281 129.292969 235.296875 128.753906 235.128906 128.203125 C 234.960938 127.65625 234.824219 127.101562 234.710938 126.539062 C 234.597656 125.976562 234.515625 125.410156 234.460938 124.839844 C 234.402344 124.269531 234.375 123.699219 234.375 123.125 L 234.375 17.5 C 234.375 16.925781 234.347656 16.355469 234.289062 15.785156 C 234.234375 15.214844 234.152344 14.648438 234.039062 14.085938 C 233.925781 13.523438 233.789062 12.96875 233.621094 12.421875 C 233.453125 11.871094 233.261719 11.332031 233.042969 10.804688 C 232.824219 10.273438 232.578125 9.757812 232.308594 9.25 C 232.039062 8.746094 231.742188 8.253906 231.425781 7.777344 C 231.105469 7.300781 230.765625 6.839844 230.402344 6.398438 C 230.039062 5.953125 229.65625 5.53125 229.25 5.125 C 228.84375 4.71875 228.417969 4.335938 227.976562 3.972656 C 227.535156 3.609375 227.074219 3.269531 226.597656 2.949219 C 226.121094 2.628906 225.628906 2.335938 225.125 2.066406 C 224.617188 1.796875 224.101562 1.550781 223.570312 1.332031 C 223.042969 1.113281 222.503906 0.917969 221.953125 0.753906 C 221.40625 0.585938 220.851562 0.449219 220.289062 0.335938 C 219.726562 0.222656 219.160156 0.140625 218.589844 0.0859375 C 218.019531 0.0273438 217.449219 0 216.875 0 L 158.125 0 C 157.550781 0 156.980469 0.0273438 156.410156 0.0859375 C 155.839844 0.140625 155.273438 0.222656 154.710938 0.335938 C 154.148438 0.449219 153.59375 0.585938 153.046875 0.753906 C 152.496094 0.917969 151.957031 1.113281 151.429688 1.332031 C 150.898438 1.550781 150.382812 1.796875 149.875 2.066406 C 149.371094 2.335938 148.878906 2.628906 148.402344 2.949219 C 147.925781 3.269531 147.464844 3.609375 147.023438 3.972656 C 146.578125 4.335938 146.15625 4.71875 145.75 5.125 C 145.34375 5.53125 144.960938 5.953125 144.597656 6.398438 C 144.234375 6.839844 143.894531 7.300781 143.574219 7.777344 C 143.253906 8.253906 142.960938 8.746094 142.691406 9.25 C 142.421875 9.757812 142.175781 10.273438 141.957031 10.804688 C 141.738281 11.332031 141.542969 11.871094 141.378906 12.421875 C 141.210938 12.96875 141.074219 13.523438 140.960938 14.085938 C 140.847656 14.648438 140.765625 15.214844 140.710938 15.785156 C 140.652344 16.355469 140.625 16.925781 140.625 17.5 L 140.625 123.125 C 140.625 123.699219 140.597656 124.269531 140.539062 124.839844 C 140.484375 125.410156 140.402344 125.976562 140.289062 126.539062 C 140.175781 127.101562 140.039062 127.65625 139.871094 128.203125 C 139.703125 128.753906 139.511719 129.292969 139.292969 129.820312 C 139.074219 130.351562 138.828125 130.867188 138.558594 131.375 C 138.289062 131.878906 137.992188 132.371094 137.675781 132.847656 C 137.355469 133.324219 137.015625 133.785156 136.652344 134.226562 C 136.289062 134.671875 135.90625 135.09375 135.5 135.5 C 135.09375 135.90625 134.667969 136.289062 134.226562 136.652344 C 133.785156 137.015625 133.324219 137.355469 132.847656 137.675781 C 132.371094 137.992188 131.878906 138.289062 131.375 138.558594 C 130.867188 138.828125 130.351562 139.074219 129.820312 139.292969 C 129.292969 139.511719 128.753906 139.707031 128.203125 139.871094 C 127.65625 140.039062 127.101562 140.175781 126.539062 140.289062 C 125.976562 140.402344 125.410156 140.484375 124.839844 140.539062 C 124.269531 140.597656 123.699219 140.625 123.125 140.625 L 17.5 140.625 C 16.925781 140.625 16.355469 140.652344 15.785156 140.710938 C 15.214844 140.765625 14.648438 140.847656 14.085938 140.960938 C 13.523438 141.074219 12.96875 141.210938 12.421875 141.378906 C 11.871094 141.542969 11.332031 141.738281 10.804688 141.957031 C 10.273438 142.175781 9.757812 142.421875 9.25 142.691406 C 8.746094 142.960938 8.253906 143.253906 7.777344 143.574219 C 7.300781 143.894531 6.839844 144.234375 6.398438 144.597656 C 5.953125 144.960938 5.53125 145.34375 5.125 145.75 C 4.71875 146.15625 4.335938 146.578125 3.972656 147.023438 C 3.609375 147.464844 3.269531 147.925781 2.949219 148.402344 C 2.628906 148.878906 2.335938 149.371094 2.066406 149.875 C 1.796875 150.382812 1.550781 150.898438 1.332031 151.429688 C 1.113281 151.957031 0.917969 152.496094 0.753906 153.046875 C 0.585938 153.59375 0.449219 154.148438 0.335938 154.710938 C 0.222656 155.273438 0.140625 155.839844 0.0859375 156.410156 C 0.0273438 156.980469 0 157.550781 0 158.125 L 0 216.875 C 0 217.449219 0.0273438 218.019531 0.0859375 218.589844 C 0.140625 219.160156 0.222656 219.726562 0.335938 220.289062 C 0.449219 220.851562 0.585938 221.40625 0.753906 221.953125 C 0.917969 222.503906 1.113281 223.042969 1.332031 223.570312 C 1.550781 224.101562 1.796875 224.617188 2.066406 225.125 C 2.335938 225.628906 2.628906 226.121094 2.949219 226.597656 C 3.269531 227.074219 3.609375 227.535156 3.972656 227.976562 C 4.335938 228.421875 4.71875 228.84375 5.125 229.25 C 5.53125 229.65625 5.953125 230.039062 6.398438 230.402344 C 6.839844 230.765625 7.300781 231.105469 7.777344 231.425781 C 8.253906 231.742188 8.746094 232.039062 9.25 232.308594 C 9.757812 232.578125 10.273438 232.824219 10.804688 233.042969 C 11.332031 233.261719 11.871094 233.453125 12.421875 233.621094 C 12.96875 233.789062 13.523438 233.925781 14.085938 234.039062 C 14.648438 234.152344 15.214844 234.234375 15.785156 234.289062 C 16.355469 234.347656 16.925781 234.375 17.5 234.375 Z M 17.5 234.375 "/>
</g>
</svg>
