<?xml version="1.0" encoding="UTF-8"?>
<svg xmlns="http://www.w3.org/2000/svg" xmlns:xlink="http://www.w3.org/1999/xlink" width="375pt" height="374.999991pt" viewBox="0 0 375 374.999991" version="1.2">
<defs>
<clipPath id="clip1">
  <path d="M 43 53.671875 L 375 53.671875 L 375 319 L 43 319 Z M 43 53.671875 "/>
</clipPath>
</defs>
<g id="surface1">
<path style=" stroke:none;fill-rule:nonzero;fill:rgb(0%,29.019165%,67.83905%);fill-opacity:1;" d="M 23.558594 207.449219 C 16.207031 207.449219 10.308594 213.351562 10.308594 220.703125 L 10.308594 287.703125 C 2.648438 293.347656 1.042969 304.167969 6.683594 311.78125 C 12.378906 319.445312 23.144531 321.050781 30.804688 315.40625 C 34.066406 312.972656 36.394531 309.449219 37.328125 305.515625 L 47.523438 305.515625 C 49.800781 314.785156 59.117188 320.425781 68.328125 318.148438 C 76.871094 316.078125 82.460938 307.949219 81.375 299.300781 C 82.667969 297.128906 83.390625 294.746094 83.390625 292.261719 C 83.339844 268.339844 77.957031 244.78125 67.65625 223.242188 C 63.050781 213.558594 53.269531 207.449219 42.554688 207.449219 Z M 24.335938 220.703125 L 42.554688 220.703125 C 48.195312 220.703125 53.269531 223.914062 55.699219 228.988281 C 61.496094 241.105469 65.636719 253.996094 67.914062 267.253906 C 44.003906 267.40625 24.4375 248.199219 24.179688 224.277344 C 24.179688 223.085938 24.230469 221.84375 24.335938 220.703125 Z M 20.453125 297.542969 C 22.679688 297.492188 24.488281 299.199219 24.542969 301.425781 C 24.542969 301.476562 24.542969 301.527344 24.542969 301.527344 C 24.59375 303.753906 22.886719 305.566406 20.710938 305.671875 C 18.484375 305.722656 16.675781 304.015625 16.570312 301.839844 C 16.570312 301.734375 16.570312 301.632812 16.570312 301.527344 C 16.570312 299.40625 18.277344 297.59375 20.453125 297.542969 Z M 64.1875 297.542969 C 66.363281 297.492188 68.175781 299.199219 68.277344 301.425781 C 68.277344 301.476562 68.277344 301.527344 68.277344 301.527344 C 68.328125 303.753906 66.621094 305.566406 64.449219 305.671875 C 62.222656 305.722656 60.410156 304.015625 60.308594 301.839844 C 60.308594 301.734375 60.308594 301.632812 60.308594 301.527344 C 60.308594 299.40625 62.015625 297.644531 64.1875 297.542969 "/>
<path style=" stroke:none;fill-rule:nonzero;fill:rgb(0%,29.019165%,67.83905%);fill-opacity:1;" d="M 268.328125 239.242188 L 268.328125 292.261719 L 321.328125 292.261719 L 321.328125 239.242188 L 268.328125 239.242188 "/>
<path style=" stroke:none;fill-rule:nonzero;fill:rgb(0%,29.019165%,67.83905%);fill-opacity:1;" d="M 268.328125 172.964844 L 268.328125 225.984375 L 321.328125 225.984375 L 321.328125 172.964844 L 268.328125 172.964844 "/>
<path style=" stroke:none;fill-rule:nonzero;fill:rgb(0%,29.019165%,67.83905%);fill-opacity:1;" d="M 202.074219 239.242188 L 202.074219 292.261719 L 255.078125 292.261719 L 255.078125 239.242188 L 202.074219 239.242188 "/>
<path style=" stroke:none;fill-rule:nonzero;fill:rgb(0%,29.019165%,67.83905%);fill-opacity:1;" d="M 96.074219 292.261719 L 96.074219 199.476562 L 109.324219 199.476562 L 109.324219 279.007812 L 135.824219 279.007812 L 135.824219 292.261719 L 96.074219 292.261719 "/>
<g clip-path="url(#clip1)" clip-rule="nonzero">
<path style=" stroke:none;fill-rule:nonzero;fill:rgb(0%,29.019165%,67.83905%);fill-opacity:1;" d="M 82.824219 224.640625 C 81.839844 222.257812 80.753906 219.875 79.613281 217.546875 C 72.886719 203.410156 58.703125 194.351562 43.070312 194.195312 L 43.070312 108.347656 L 208.699219 53.671875 L 374.328125 108.347656 L 374.328125 318.769531 L 149.074219 318.769531 L 149.074219 305.515625 L 334.578125 305.515625 L 334.578125 146.457031 L 82.824219 146.457031 L 82.824219 224.640625 "/>
</g>
</g>
</svg>
